custom-analysis
version=1
nRows=7
nColumns=98
inDegrees=no

This file contains tibia displacement and acting force.

Units are S.I. units (seconds, meters, Newtons, ...)
Angles are in degrees.

endheader
time	APT	SIT	knee_angle	aACL_R_force	pACL_R_force	aPCL_R_force	pPCL_R_force	aMCL_R_force	mMCL_R_force	pMCL_R_force	aLCL_R_force	mLCL_R_force	pLCL_R_force	aPCL_L_force	pPCL_L_force	aMCL_L_force	aLCL_L_force	aACL_R_length	pACL_R_length	aPCL_R_length	pPCL_R_length	aMCL_R_length	mMCL_R_length	pMCL_R_length	aLCL_R_length	mLCL_R_length	pLCL_R_length	aPCL_L_length	pPCL_L_length	aMCL_L_length	aLCL_L_length	aACL_R_strain	pACL_R_strain	aPCL_R_strain	pPCL_R_strain	aMCL_R_strain	mMCL_R_strain	pMCL_R_strain	aLCL_R_strain	mLCL_R_strain	pLCL_R_strain	aPCL_L_strain	pPCL_L_strain	aMCL_L_strain	aLCL_L_strain	femur_lat_meniscii_r.femur_lat_r.force.X	femur_lat_meniscii_r.femur_lat_r.force.Y	femur_lat_meniscii_r.femur_lat_r.force.Z	femur_lat_meniscii_r.femur_lat_r.torque.X	femur_lat_meniscii_r.femur_lat_r.torque.Y	femur_lat_meniscii_r.femur_lat_r.torque.Z	femur_lat_meniscii_r.meniscus_lat_r.force.X	femur_lat_meniscii_r.meniscus_lat_r.force.Y	femur_lat_meniscii_r.meniscus_lat_r.force.Z	femur_lat_meniscii_r.meniscus_lat_r.torque.X	femur_lat_meniscii_r.meniscus_lat_r.torque.Y	femur_lat_meniscii_r.meniscus_lat_r.torque.Z	femur_med_meniscii_r.femur_med_r.force.X	femur_med_meniscii_r.femur_med_r.force.Y	femur_med_meniscii_r.femur_med_r.force.Z	femur_med_meniscii_r.femur_med_r.torque.X	femur_med_meniscii_r.femur_med_r.torque.Y	femur_med_meniscii_r.femur_med_r.torque.Z	femur_med_meniscii_r.meniscus_med_r.force.X	femur_med_meniscii_r.meniscus_med_r.force.Y	femur_med_meniscii_r.meniscus_med_r.force.Z	femur_med_meniscii_r.meniscus_med_r.torque.X	femur_med_meniscii_r.meniscus_med_r.torque.Y	femur_med_meniscii_r.meniscus_med_r.torque.Z	femur_med_tibia_r.tibia_upper_r.force.X	femur_med_tibia_r.tibia_upper_r.force.Y	femur_med_tibia_r.tibia_upper_r.force.Z	femur_med_tibia_r.tibia_upper_r.torque.X	femur_med_tibia_r.tibia_upper_r.torque.Y	femur_med_tibia_r.tibia_upper_r.torque.Z	femur_med_tibia_r.femur_med_r.force.X	femur_med_tibia_r.femur_med_r.force.Y	femur_med_tibia_r.femur_med_r.force.Z	femur_med_tibia_r.femur_med_r.torque.X	femur_med_tibia_r.femur_med_r.torque.Y	femur_med_tibia_r.femur_med_r.torque.Z	femur_lat_tibia_r.tibia_upper_r.force.X	femur_lat_tibia_r.tibia_upper_r.force.Y	femur_lat_tibia_r.tibia_upper_r.force.Z	femur_lat_tibia_r.tibia_upper_r.torque.X	femur_lat_tibia_r.tibia_upper_r.torque.Y	femur_lat_tibia_r.tibia_upper_r.torque.Z	femur_lat_tibia_r.femur_lat_r.force.X	femur_lat_tibia_r.femur_lat_r.force.Y	femur_lat_tibia_r.femur_lat_r.force.Z	femur_lat_tibia_r.femur_lat_r.torque.X	femur_lat_tibia_r.femur_lat_r.torque.Y	femur_lat_tibia_r.femur_lat_r.torque.Z	femur_lat_meniscii_force_r	femur_med_meniscii_force_r	femur_lat_tibia_force_r	femur_med_tibia_force_r
      0.50861585	      0.00110972	      0.00049190	      1.66574369	     19.63188147	     42.57638617	      0.00000000	      0.00000000	      0.00000000	      2.49121391	     42.65065988	      0.46150518	      0.00000000	      0.72231836	      0.00000000	      0.00000000	      0.00000001	      0.00000000	      0.03258922	      0.02694529	      0.02840633	      0.02875855	      0.05615052	      0.06096515	      0.06327607	      0.05611405	      0.05454848	      0.05269794	      0.01525851	      0.01651186	      0.06550154	      0.04489616	      0.05107863	      0.07528671	     -0.08647511	     -0.03778299	     -0.06457894	      0.01959502	      0.07744291	      0.00244475	     -0.03143051	      0.00678676	      0.00000079	     -0.32847694	      0.00000060	     -0.00000086	     34.35936140	     78.35620379	      6.22383132	     -4.55283620	      0.86342914	     14.41075211	    -34.35936140	    -78.35620379	     -6.22383132	      2.56227829	     -1.04302399	     -1.16060688	     42.32947675	     78.70497983	      6.03280582	     -0.79126232	     -0.95289051	     17.96644982	    -42.32947675	    -78.70497983	     -6.03280582	     -1.12402636	      0.73235648	     -1.65060988	     -1.33677455	    -10.95873105	      3.64716373	     -0.24167080	     -0.02969470	     -0.17802050	      1.33677455	     10.95873105	     -3.64716373	      1.70088355	      0.02442104	      0.69701169	      0.00000000	      0.00000000	      0.00000000	      0.00000000	      0.00000000	      0.00000000	      0.00000000	      0.00000000	      0.00000000	      0.00000000	      0.00000000	      0.00000000	     85.78459340	     89.56926481	      0.00000000	     11.62680334
      0.50959621	      0.00110990	      0.00049174	      1.66574369	     19.66157079	     42.61179091	      0.00000000	      0.00000000	      0.00000000	      2.52499544	     42.68420468	      0.48576685	      0.00000000	      0.74770542	      0.00000000	      0.00000000	      0.00000001	      0.00000000	      0.03258941	      0.02694548	      0.02840644	      0.02875864	      0.05615045	      0.06096509	      0.06327603	      0.05611452	      0.05454897	      0.05269844	      0.01525851	      0.01651186	      0.06550154	      0.04489616	      0.05108496	      0.07529452	     -0.08647162	     -0.03777984	     -0.06458007	      0.01959392	      0.07744227	      0.00245321	     -0.03142173	      0.00679636	      0.00000079	     -0.32847694	      0.00000060	     -0.00000086	     34.35556231	     78.28593562	      6.21479302	     -4.54719817	      0.86327831	     14.40896968	    -34.35556231	    -78.28593562	     -6.21479302	      2.55971163	     -1.04283091	     -1.16031271	     42.34394122	     78.70399524	      6.02352467	     -0.78732800	     -0.95323455	     17.97263963	    -42.34394122	    -78.70399524	     -6.02352467	     -1.12443949	      0.73265320	     -1.65123165	     -1.33489808	    -10.93889718	      3.64117693	     -0.24126456	     -0.02964160	     -0.17771817	      1.33489808	     10.93889718	     -3.64117693	      1.69806708	      0.02437566	      0.69597896	      0.00000000	      0.00000000	      0.00000000	      0.00000000	      0.00000000	      0.00000000	      0.00000000	      0.00000000	      0.00000000	      0.00000000	      0.00000000	      0.00000000	     85.71823628	     89.57461177	      0.00000000	     11.60601541
      0.51008640	      0.00110998	      0.00049165	      1.66574369	     19.67093421	     42.62416625	      0.00000000	      0.00000000	      0.00000000	      2.53110654	     42.69034653	      0.48481676	      0.00000000	      0.74714882	      0.00000000	      0.00000000	      0.00000001	      0.00000000	      0.03258953	      0.02694560	      0.02840650	      0.02875869	      0.05615043	      0.06096507	      0.06327602	      0.05611476	      0.05454922	      0.05269870	      0.01525851	      0.01651186	      0.06550154	      0.04489616	      0.05108870	      0.07529918	     -0.08646979	     -0.03777812	     -0.06458045	      0.01959358	      0.07744215	      0.00245751	     -0.03141726	      0.00680125	      0.00000079	     -0.32847694	      0.00000060	     -0.00000086	     34.35268334	     78.25294453	      6.21123505	     -4.54483995	      0.86318049	     14.40765609	    -34.35268334	    -78.25294453	     -6.21123505	      2.55853201	     -1.04270813	     -1.16011777	     42.34984629	     78.70553298	      6.01987286	     -0.78573539	     -0.95337474	     17.97516345	    -42.34984629	    -78.70553298	     -6.01987286	     -1.12463980	      0.73277519	     -1.65147966	     -1.33347302	    -10.92498505	      3.63673887	     -0.24096792	     -0.02960272	     -0.17750123	      1.33347302	     10.92498505	     -3.63673887	      1.69598938	      0.02434251	      0.69520794	      0.00000000	      0.00000000	      0.00000000	      0.00000000	      0.00000000	      0.00000000	      0.00000000	      0.00000000	      0.00000000	      0.00000000	      0.00000000	      0.00000000	     85.68669454	     89.57850898	      0.00000000	     11.59134670
      0.51253731	      0.00111048	      0.00049120	      1.66574369	     19.69812578	     42.66550427	      0.00000000	      0.00000000	      0.00000000	      2.52681181	     42.68714599	      0.43229697	      0.00000000	      0.69677685	      0.00000000	      0.00000000	      0.00000001	      0.00000000	      0.03259017	      0.02694625	      0.02840672	      0.02875890	      0.05615032	      0.06096497	      0.06327600	      0.05611590	      0.05455042	      0.05269991	      0.01525851	      0.01651186	      0.06550154	      0.04489616	      0.05110944	      0.07532512	     -0.08646270	     -0.03777140	     -0.06458224	      0.01959198	      0.07744174	      0.00247787	     -0.03139607	      0.00682446	      0.00000079	     -0.32847694	      0.00000060	     -0.00000086	     34.34286109	     78.10540395	      6.20575642	     -4.53869551	      0.86283410	     14.40300755	    -34.34286109	    -78.10540395	     -6.20575642	      2.55364541	     -1.04227111	     -1.15928754	     42.28820533	     78.78708209	      5.98706651	     -0.77032661	     -0.95261007	     17.94912136	    -42.28820533	    -78.78708209	     -5.98706651	     -1.12710137	      0.73238879	     -1.64908259	     -1.32767341	    -10.86472307	      3.61687670	     -0.23965681	     -0.02942306	     -0.17657391	      1.32767341	     10.86472307	     -3.61687670	      1.68671788	      0.02418592	      0.69202537	      0.00000000	      0.00000000	      0.00000000	      0.00000000	      0.00000000	      0.00000000	      0.00000000	      0.00000000	      0.00000000	      0.00000000	      0.00000000	      0.00000000	     85.54763379	     89.61886844	      0.00000000	     11.52765029
      0.51498822	      0.00111111	      0.00049083	      1.66574369	     19.70876442	     42.68871731	      0.00000000	      0.00000000	      0.00000000	      2.50566255	     42.66645739	      0.36653005	      0.00000000	      0.63249329	      0.00000000	      0.00000000	      0.00000001	      0.00000000	      0.03259083	      0.02694691	      0.02840678	      0.02875895	      0.05615017	      0.06096483	      0.06327593	      0.05611687	      0.05455144	      0.05270096	      0.01525851	      0.01651186	      0.06550154	      0.04489616	      0.05113061	      0.07535151	     -0.08646069	     -0.03776958	     -0.06458483	      0.01958957	      0.07744056	      0.00249517	     -0.03137788	      0.00684444	      0.00000079	     -0.32847694	      0.00000060	     -0.00000086	     34.33633199	     77.98649459	      6.21265076	     -4.53850091	      0.86259098	     14.39976849	    -34.33633199	    -77.98649459	     -6.21265076	      2.55010561	     -1.04196433	     -1.15857677	     42.32143992	     78.82690592	      5.99555183	     -0.77298693	     -0.95338621	     17.96327360	    -42.32143992	    -78.82690592	     -5.99555183	     -1.12758226	      0.73303151	     -1.65039589	     -1.32659540	    -10.84572089	      3.61017482	     -0.23923374	     -0.02935141	     -0.17630426	      1.32659540	     10.84572089	     -3.61017482	      1.68360947	      0.02411931	      0.69133646	      0.00000000	      0.00000000	      0.00000000	      0.00000000	      0.00000000	      0.00000000	      0.00000000	      0.00000000	      0.00000000	      0.00000000	      0.00000000	      0.00000000	     85.43695958	     89.67012890	      0.00000000	     11.50751403
      0.51621367	      0.00111146	      0.00049069	      1.66574369	     19.71243247	     42.69793166	      0.00000000	      0.00000000	      0.00000000	      2.49869026	     42.65925645	      0.34196249	      0.00000000	      0.60841761	      0.00000000	      0.00000000	      0.00000001	      0.00000000	      0.03259114	      0.02694722	      0.02840676	      0.02875893	      0.05615007	      0.06096473	      0.06327587	      0.05611730	      0.05455189	      0.05270142	      0.01525851	      0.01651186	      0.06550154	      0.04489616	      0.05114064	      0.07536392	     -0.08646127	     -0.03777025	     -0.06458649	      0.01958799	      0.07743960	      0.00250276	     -0.03136984	      0.00685330	      0.00000079	     -0.32847694	      0.00000060	     -0.00000086	     34.33338846	     77.93482265	      6.21932427	     -4.53996091	      0.86248452	     14.39829990	    -34.33338846	    -77.93482265	     -6.21932427	      2.54869282	     -1.04182956	     -1.15824343	     42.33716147	     78.85121271	      5.99985797	     -0.77424938	     -0.95376401	     17.96997932	    -42.33716147	    -78.85121271	     -5.99985797	     -1.12789162	      0.73334673	     -1.65102294	     -1.32769716	    -10.85105989	      3.61165714	     -0.23934621	     -0.02935613	     -0.17640411	      1.32769716	     10.85105989	     -3.61165714	      1.68431455	      0.02412038	      0.69186471	      0.00000000	      0.00000000	      0.00000000	      0.00000000	      0.00000000	      0.00000000	      0.00000000	      0.00000000	      0.00000000	      0.00000000	      0.00000000	      0.00000000	     85.38909848	     89.69920447	      0.00000000	     11.51313805
      0.51933190	      0.00111244	      0.00049038	      1.66574369	     19.72430754	     42.72263062	      0.00000000	      0.00000000	      0.00000000	      2.49241813	     42.65183815	      0.29810759	      0.00000000	      0.56560297	      0.00000000	      0.00000000	      0.00000001	      0.00000000	      0.03259189	      0.02694796	      0.02840663	      0.02875880	      0.05614979	      0.06096446	      0.06327570	      0.05611826	      0.05455293	      0.05270248	      0.01525851	      0.01651186	      0.06550154	      0.04489616	      0.05116466	      0.07539325	     -0.08646555	     -0.03777475	     -0.06459111	      0.01958348	      0.07743669	      0.00251988	     -0.03135153	      0.00687350	      0.00000079	     -0.32847694	      0.00000060	     -0.00000086	     34.32932270	     77.81742512	      6.23841869	     -4.54491624	      0.86229837	     14.39603308	    -34.32932270	    -77.81742512	     -6.23841869	      2.54559634	     -1.04158951	     -1.15753831	     42.36918891	     78.92284606	      6.02519336	     -0.78331516	     -0.95447422	     17.98367906	    -42.36918891	    -78.92284606	     -6.02519336	     -1.12830720	      0.73393308	     -1.65231560	     -1.33284860	    -10.88526078	      3.62227087	     -0.24008835	     -0.02942507	     -0.17698661	      1.33284860	     10.88526078	     -3.62227087	      1.68930171	      0.02417133	      0.69445031	      0.00000000	      0.00000000	      0.00000000	      0.00000000	      0.00000000	      0.00000000	      0.00000000	      0.00000000	      0.00000000	      0.00000000	      0.00000000	      0.00000000	     85.28172088	     89.77898838	      0.00000000	     11.54929582
